HIERARCHY
ROOT pelvis
{
  OFFSET 0 100 0
  CHANNELS 6 Xposition Yposition Zposition Zrotation Xrotation Yrotation
  JOINT pelvis_right_femur
  {
    OFFSET -10.78128 -3.44521 -0.5502486
    CHANNELS 3 Zrotation Xrotation Yrotation
    JOINT right_femur_tibia
    {
      OFFSET -0.8047443 -44.0398 -0.1307829
      CHANNELS 3 Zrotation Xrotation Yrotation
      JOINT right_tibia_foot
      {
        OFFSET 3.006224 -47.83518 -5
        CHANNELS 3 Zrotation Xrotation Yrotation
        End Site
        {
          OFFSET 0 -5 15
        }
      }
    }
  }
  JOINT pelvis_left_femur
  {
    OFFSET 10.78128 -3.44521 -0.5502486
    CHANNELS 3 Zrotation Xrotation Yrotation
    JOINT left_femur_tibia
    {
      OFFSET 0.8047443 -44.0398 -0.1307829
      CHANNELS 3 Zrotation Xrotation Yrotation
      JOINT left_tibia_foot
      {
        OFFSET -4.370144 -48.10324 -4.275266
        CHANNELS 3 Zrotation Xrotation Yrotation
        End Site
        {
          OFFSET 0 -5 15
        }
      }
    }
  }
  JOINT pelvis_spine1
  {
    OFFSET 0 6.468898 -3.129235
    CHANNELS 3 Zrotation Xrotation Yrotation
    JOINT spine1
    {
      OFFSET 0 23.15396 4.99043
      CHANNELS 3 Zrotation Xrotation Yrotation
      JOINT spine2
      {
        OFFSET 0 20.79997 -5.064912
        CHANNELS 3 Zrotation Xrotation Yrotation
        JOINT neck
        {
          OFFSET 0 14.38658 9.616178
          CHANNELS 3 Zrotation Xrotation Yrotation
          End Site
          {
            OFFSET 0 20 0
          }
        }
      }
      JOINT right_manubrium
      {
        OFFSET -5.722621 16.35077 3.967754
        CHANNELS 3 Zrotation Xrotation Yrotation
        JOINT right_clavicle
        {
          OFFSET -13.16364 1.694482 -4.693211
          CHANNELS 3 Zrotation Xrotation Yrotation
          JOINT right_humerus
          {
            OFFSET -28.5034 -0.3100689 -2.792744
            CHANNELS 3 Zrotation Xrotation Yrotation
            JOINT right_radius
            {
              OFFSET -25.15693 0.02248979 -1.271978
              CHANNELS 3 Zrotation Xrotation Yrotation
              End Site
              {
                OFFSET -15 0 0
              }
            }
          }
        }
      }
      JOINT left_manubrium
      {
        OFFSET 5.722621 16.35077 3.967754
        CHANNELS 3 Zrotation Xrotation Yrotation
        JOINT left_clavicle
        {
          OFFSET 13.16364 1.694482 -4.693211
          CHANNELS 3 Zrotation Xrotation Yrotation
          JOINT left_humerus
          {
            OFFSET 29.39168 -1.063119 -2.237045
            CHANNELS 3 Zrotation Xrotation Yrotation
            JOINT left_radius
            {
              OFFSET 24.59957 -0.9528479 0.9047498
              CHANNELS 3 Zrotation Xrotation Yrotation
              End Site
              {
                OFFSET 15 -0 -0
              }
            }
          }
        }
      }
    }
  }
}
MOTION
Frames: 21
Frame Time: 0.0416666666667
-333.8835 102.1596 71.16802 7.32197 -7.464375 50.38077 6.026183 17.4506 1.817376 -0 19.05635 -0 -11.30858 -16.08203 -3.778156 4.567426 -18.70943 -3.232343 -0 15.48301 -0 3.789226 0.5154896 16.07686 1.282316 -4.28592 7.738594 0.02467381 16.52098 -5.613498 1.157628 19.42149 1.95129 0.6418695 -17.10804 3.943325 -1.483654 -31.27994 12.50822 88.13753 15.61133 -8.615841 -0 0 30.83252 -22.12633 18.30698 14.64895 1.573384 -22.54816 -8.600687 -97.25741 11.3663 39.69993 0 0 -4.803959 4.461031 15.68411 8.157187
-329.2868 102.1623 73.70087 7.229515 -7.553925 49.67331 6.026183 17.4506 1.817376 -0 19.05635 -0 -11.30858 -16.08203 -3.778156 4.567426 -18.70943 -3.232343 -0 15.48301 -0 3.789226 0.5154896 16.07686 1.282316 -4.28592 7.738594 0.02467381 16.52098 -5.613498 1.157628 19.42149 1.95129 0.6418695 -17.10804 3.943325 -1.483654 -31.27994 12.50822 88.13753 15.61133 -8.615841 -0 0 30.83252 -22.12633 18.30698 14.64895 1.573384 -22.54816 -8.600687 -97.25741 11.3663 39.69993 0 0 -4.803959 4.461031 15.68411 8.157187
-324.7216 102.165 76.29025 7.135931 -7.642336 48.96556 6.026183 17.4506 1.817376 -0 19.05635 -0 -11.30858 -16.08203 -3.778156 4.567426 -18.70943 -3.232343 -0 15.48301 -0 3.789226 0.5154896 16.07686 1.282316 -4.28592 7.738594 0.02467381 16.52098 -5.613498 1.157628 19.42149 1.95129 0.6418695 -17.10804 3.943325 -1.483654 -31.27994 12.50822 88.13753 15.61133 -8.615841 -0 0 30.83252 -22.12633 18.30698 14.64895 1.573384 -22.54816 -8.600687 -97.25741 11.3663 39.69993 0 0 -4.803959 4.461031 15.68411 8.157187
-320.1888 102.1677 78.93578 7.041234 -7.729594 48.25751 6.026183 17.4506 1.817376 -0 19.05635 -0 -11.30858 -16.08203 -3.778156 4.567426 -18.70943 -3.232343 -0 15.48301 -0 3.789226 0.5154896 16.07686 1.282316 -4.28592 7.738594 0.02467381 16.52098 -5.613498 1.157628 19.42149 1.95129 0.6418695 -17.10804 3.943325 -1.483654 -31.27994 12.50822 88.13753 15.61133 -8.615841 -0 0 30.83252 -22.12633 18.30698 14.64895 1.573384 -22.54816 -8.600687 -97.25741 11.3663 39.69993 0 0 -4.803959 4.461031 15.68411 8.157187
-315.6889 102.1704 81.63704 6.945436 -7.815686 47.54918 6.026183 17.4506 1.817376 -0 19.05635 -0 -11.30858 -16.08203 -3.778156 4.567426 -18.70943 -3.232343 -0 15.48301 -0 3.789226 0.5154896 16.07686 1.282316 -4.28592 7.738594 0.02467381 16.52098 -5.613498 1.157628 19.42149 1.95129 0.6418695 -17.10804 3.943325 -1.483654 -31.27994 12.50822 88.13753 15.61133 -8.615841 -0 0 30.83252 -22.12633 18.30698 14.64895 1.573384 -22.54816 -8.600687 -97.25741 11.3663 39.69993 0 0 -4.803959 4.461031 15.68411 8.157187
-311.2227 102.1731 84.39363 6.848551 -7.900597 46.84055 6.026183 17.4506 1.817376 -0 19.05635 -0 -11.30858 -16.08203 -3.778156 4.567426 -18.70943 -3.232343 -0 15.48301 -0 3.789226 0.5154896 16.07686 1.282316 -4.28592 7.738594 0.02467381 16.52098 -5.613498 1.157628 19.42149 1.95129 0.6418695 -17.10804 3.943325 -1.483654 -31.27994 12.50822 88.13753 15.61133 -8.615841 -0 0 30.83252 -22.12633 18.30698 14.64895 1.573384 -22.54816 -8.600687 -97.25741 11.3663 39.69993 0 0 -4.803959 4.461031 15.68411 8.157187
-306.7909 102.1758 87.20512 6.750593 -7.984315 46.13164 6.026183 17.4506 1.817376 -0 19.05635 -0 -11.30858 -16.08203 -3.778156 4.567426 -18.70943 -3.232343 -0 15.48301 -0 3.789226 0.5154896 16.07686 1.282316 -4.28592 7.738594 0.02467381 16.52098 -5.613498 1.157628 19.42149 1.95129 0.6418695 -17.10804 3.943325 -1.483654 -31.27994 12.50822 88.13753 15.61133 -8.615841 -0 0 30.83252 -22.12633 18.30698 14.64895 1.573384 -22.54816 -8.600687 -97.25741 11.3663 39.69993 0 0 -4.803959 4.461031 15.68411 8.157187
-302.3941 102.1785 90.07109 6.651576 -8.066826 45.42244 6.026183 17.4506 1.817376 -0 19.05635 -0 -11.30858 -16.08203 -3.778156 4.567426 -18.70943 -3.232343 -0 15.48301 -0 3.789226 0.5154896 16.07686 1.282316 -4.28592 7.738594 0.02467381 16.52098 -5.613498 1.157628 19.42149 1.95129 0.6418695 -17.10804 3.943325 -1.483654 -31.27994 12.50822 88.13753 15.61133 -8.615841 -0 0 30.83252 -22.12633 18.30698 14.64895 1.573384 -22.54816 -8.600687 -97.25741 11.3663 39.69993 0 0 -4.803959 4.461031 15.68411 8.157187
-298.033 102.1812 92.9911 6.551515 -8.148117 44.71295 6.026183 17.4506 1.817376 -0 19.05635 -0 -11.30858 -16.08203 -3.778156 4.567426 -18.70943 -3.232343 -0 15.48301 -0 3.789226 0.5154896 16.07686 1.282316 -4.28592 7.738594 0.02467381 16.52098 -5.613498 1.157628 19.42149 1.95129 0.6418695 -17.10804 3.943325 -1.483654 -31.27994 12.50822 88.13753 15.61133 -8.615841 -0 0 30.83252 -22.12633 18.30698 14.64895 1.573384 -22.54816 -8.600687 -97.25741 11.3663 39.69993 0 0 -4.803959 4.461031 15.68411 8.157187
-293.7083 102.184 95.96471 6.450425 -8.228174 44.00317 6.026183 17.4506 1.817376 -0 19.05635 -0 -11.30858 -16.08203 -3.778156 4.567426 -18.70943 -3.232343 -0 15.48301 -0 3.789226 0.5154896 16.07686 1.282316 -4.28592 7.738594 0.02467381 16.52098 -5.613498 1.157628 19.42149 1.95129 0.6418695 -17.10804 3.943325 -1.483654 -31.27994 12.50822 88.13753 15.61133 -8.615841 -0 0 30.83252 -22.12633 18.30698 14.64895 1.573384 -22.54816 -8.600687 -97.25741 11.3663 39.69993 0 0 -4.803959 4.461031 15.68411 8.157187
-289.4206 102.1867 98.99147 6.348319 -8.306986 43.29311 6.026183 17.4506 1.817376 -0 19.05635 -0 -11.30858 -16.08203 -3.778156 4.567426 -18.70943 -3.232343 -0 15.48301 -0 3.789226 0.5154896 16.07686 1.282316 -4.28592 7.738594 0.02467381 16.52098 -5.613498 1.157628 19.42149 1.95129 0.6418695 -17.10804 3.943325 -1.483654 -31.27994 12.50822 88.13753 15.61133 -8.615841 -0 0 30.83252 -22.12633 18.30698 14.64895 1.573384 -22.54816 -8.600687 -97.25741 11.3663 39.69993 0 0 -4.803959 4.461031 15.68411 8.157187
-285.1706 102.1894 102.0709 6.245214 -8.384539 42.58276 6.026183 17.4506 1.817376 -0 19.05635 -0 -11.30858 -16.08203 -3.778156 4.567426 -18.70943 -3.232343 -0 15.48301 -0 3.789226 0.5154896 16.07686 1.282316 -4.28592 7.738594 0.02467381 16.52098 -5.613498 1.157628 19.42149 1.95129 0.6418695 -17.10804 3.943325 -1.483654 -31.27994 12.50822 88.13753 15.61133 -8.615841 -0 0 30.83252 -22.12633 18.30698 14.64895 1.573384 -22.54816 -8.600687 -97.25741 11.3663 39.69993 0 0 -4.803959 4.461031 15.68411 8.157187
-280.9589 102.1921 105.2025 6.141124 -8.460821 41.87214 6.026183 17.4506 1.817376 -0 19.05635 -0 -11.30858 -16.08203 -3.778156 4.567426 -18.70943 -3.232343 -0 15.48301 -0 3.789226 0.5154896 16.07686 1.282316 -4.28592 7.738594 0.02467381 16.52098 -5.613498 1.157628 19.42149 1.95129 0.6418695 -17.10804 3.943325 -1.483654 -31.27994 12.50822 88.13753 15.61133 -8.615841 -0 0 30.83252 -22.12633 18.30698 14.64895 1.573384 -22.54816 -8.600687 -97.25741 11.3663 39.69993 0 0 -4.803959 4.461031 15.68411 8.157187
-276.7862 102.1948 108.3859 6.036065 -8.53582 41.16123 6.026183 17.4506 1.817376 -0 19.05635 -0 -11.30858 -16.08203 -3.778156 4.567426 -18.70943 -3.232343 -0 15.48301 -0 3.789226 0.5154896 16.07686 1.282316 -4.28592 7.738594 0.02467381 16.52098 -5.613498 1.157628 19.42149 1.95129 0.6418695 -17.10804 3.943325 -1.483654 -31.27994 12.50822 88.13753 15.61133 -8.615841 -0 0 30.83252 -22.12633 18.30698 14.64895 1.573384 -22.54816 -8.600687 -97.25741 11.3663 39.69993 0 0 -4.803959 4.461031 15.68411 8.157187
-272.6531 102.1975 111.6206 5.930052 -8.609524 40.45005 6.026183 17.4506 1.817376 -0 19.05635 -0 -11.30858 -16.08203 -3.778156 4.567426 -18.70943 -3.232343 -0 15.48301 -0 3.789226 0.5154896 16.07686 1.282316 -4.28592 7.738594 0.02467381 16.52098 -5.613498 1.157628 19.42149 1.95129 0.6418695 -17.10804 3.943325 -1.483654 -31.27994 12.50822 88.13753 15.61133 -8.615841 -0 0 30.83252 -22.12633 18.30698 14.64895 1.573384 -22.54816 -8.600687 -97.25741 11.3663 39.69993 0 0 -4.803959 4.461031 15.68411 8.157187
-268.5602 102.2002 114.906 5.823102 -8.68192 39.7386 6.026183 17.4506 1.817376 -0 19.05635 -0 -11.30858 -16.08203 -3.778156 4.567426 -18.70943 -3.232343 -0 15.48301 -0 3.789226 0.5154896 16.07686 1.282316 -4.28592 7.738594 0.02467381 16.52098 -5.613498 1.157628 19.42149 1.95129 0.6418695 -17.10804 3.943325 -1.483654 -31.27994 12.50822 88.13753 15.61133 -8.615841 -0 0 30.83252 -22.12633 18.30698 14.64895 1.573384 -22.54816 -8.600687 -97.25741 11.3663 39.69993 0 0 -4.803959 4.461031 15.68411 8.157187
-264.5082 102.2029 118.2416 5.715229 -8.752998 39.02687 6.026183 17.4506 1.817376 -0 19.05635 -0 -11.30858 -16.08203 -3.778156 4.567426 -18.70943 -3.232343 -0 15.48301 -0 3.789226 0.5154896 16.07686 1.282316 -4.28592 7.738594 0.02467381 16.52098 -5.613498 1.157628 19.42149 1.95129 0.6418695 -17.10804 3.943325 -1.483654 -31.27994 12.50822 88.13753 15.61133 -8.615841 -0 0 30.83252 -22.12633 18.30698 14.64895 1.573384 -22.54816 -8.600687 -97.25741 11.3663 39.69993 0 0 -4.803959 4.461031 15.68411 8.157187
-260.4976 102.2056 121.627 5.606451 -8.822746 38.31487 6.026183 17.4506 1.817376 -0 19.05635 -0 -11.30858 -16.08203 -3.778156 4.567426 -18.70943 -3.232343 -0 15.48301 -0 3.789226 0.5154896 16.07686 1.282316 -4.28592 7.738594 0.02467381 16.52098 -5.613498 1.157628 19.42149 1.95129 0.6418695 -17.10804 3.943325 -1.483654 -31.27994 12.50822 88.13753 15.61133 -8.615841 -0 0 30.83252 -22.12633 18.30698 14.64895 1.573384 -22.54816 -8.600687 -97.25741 11.3663 39.69993 0 0 -4.803959 4.461031 15.68411 8.157187
-256.5292 102.2083 125.0617 5.496784 -8.891152 37.60261 6.026183 17.4506 1.817376 -0 19.05635 -0 -11.30858 -16.08203 -3.778156 4.567426 -18.70943 -3.232343 -0 15.48301 -0 3.789226 0.5154896 16.07686 1.282316 -4.28592 7.738594 0.02467381 16.52098 -5.613498 1.157628 19.42149 1.95129 0.6418695 -17.10804 3.943325 -1.483654 -31.27994 12.50822 88.13753 15.61133 -8.615841 -0 0 30.83252 -22.12633 18.30698 14.64895 1.573384 -22.54816 -8.600687 -97.25741 11.3663 39.69993 0 0 -4.803959 4.461031 15.68411 8.157187
-252.6034 102.211 128.545 5.386244 -8.958206 36.89008 6.026183 17.4506 1.817376 -0 19.05635 -0 -11.30858 -16.08203 -3.778156 4.567426 -18.70943 -3.232343 -0 15.48301 -0 3.789226 0.5154896 16.07686 1.282316 -4.28592 7.738594 0.02467381 16.52098 -5.613498 1.157628 19.42149 1.95129 0.6418695 -17.10804 3.943325 -1.483654 -31.27994 12.50822 88.13753 15.61133 -8.615841 -0 0 30.83252 -22.12633 18.30698 14.64895 1.573384 -22.54816 -8.600687 -97.25741 11.3663 39.69993 0 0 -4.803959 4.461031 15.68411 8.157187
-248.7209 102.2138 132.0766 5.274848 -9.023896 36.17729 6.026183 17.4506 1.817376 -0 19.05635 -0 -11.30858 -16.08203 -3.778156 4.567426 -18.70943 -3.232343 -0 15.48301 -0 3.789226 0.5154896 16.07686 1.282316 -4.28592 7.738594 0.02467381 16.52098 -5.613498 1.157628 19.42149 1.95129 0.6418695 -17.10804 3.943325 -1.483654 -31.27994 12.50822 88.13753 15.61133 -8.615841 -0 0 30.83252 -22.12633 18.30698 14.64895 1.573384 -22.54816 -8.600687 -97.25741 11.3663 39.69993 0 0 -4.803959 4.461031 15.68411 8.157187
